<svg xmlns="http://www.w3.org/2000/svg" width="1200" height="800" viewBox="0 0 1200 800">
  <defs>
    <linearGradient id="g" x1="0" x2="1" y1="0" y2="1">
      <stop offset="0" stop-color="#d97706"/>
      <stop offset="1" stop-color="#f59e0b"/>
    </linearGradient>
    <radialGradient id="r" cx="25%" cy="20%" r="80%">
      <stop offset="0" stop-color="rgba(255,255,255,0.85)"/>
      <stop offset="1" stop-color="rgba(255,255,255,0)"/>
    </radialGradient>
  </defs>
  <rect x="0" y="0" width="1200" height="800" fill="#fff7e6"/>
  <rect x="60" y="60" width="1080" height="680" rx="36" fill="white" opacity="0.92"/>
  <rect x="60" y="60" width="1080" height="680" rx="36" fill="url(#r)"/>
  <rect x="110" y="140" width="980" height="130" rx="26" fill="url(#g)" opacity="0.95"/>
  <text x="150" y="220" font-family="system-ui, -apple-system, Segoe UI, Roboto, Arial" font-size="56" fill="white" font-weight="900">LED Board Branding</text>
  <text x="150" y="300" font-family="system-ui, -apple-system, Segoe UI, Roboto, Arial" font-size="28" fill="#6b7280" font-weight="700">Dealer Boards • Signage</text>
  <g opacity="0.95">
    <circle cx="900" cy="520" r="140" fill="rgba(245,158,11,0.18)"/>
    <circle cx="980" cy="540" r="90" fill="rgba(217,119,6,0.12)"/>
    <rect x="160" y="420" width="520" height="34" rx="17" fill="rgba(245,158,11,0.18)"/>
    <rect x="160" y="470" width="640" height="34" rx="17" fill="rgba(245,158,11,0.14)"/>
    <rect x="160" y="520" width="420" height="34" rx="17" fill="rgba(245,158,11,0.12)"/>
    <rect x="160" y="590" width="300" height="46" rx="23" fill="rgba(217,119,6,0.12)"/>
    <text x="190" y="622" font-family="system-ui, -apple-system, Segoe UI, Roboto, Arial" font-size="18" fill="#7c2d12" font-weight="900">VNS Printing • Publicity • Branding • Promotion</text>
  </g>
</svg>